<svg width="20" height="13" viewBox="0 0 20 13" fill="none" xmlns="http://www.w3.org/2000/svg">
<path d="M18.3333 12.3333H13.3333V8.99996H11.1C10.15 11.0166 8.1 12.3333 5.83333 12.3333C2.61667 12.3333 0 9.71663 0 6.49996C0 3.28329 2.61667 0.666626 5.83333 0.666626C8.1 0.666626 10.1417 1.98329 11.1 3.99996H20V8.99996H18.3333V12.3333ZM15 10.6666H16.6667V7.33329H18.3333V5.66663H9.95L9.75833 5.10829C9.175 3.44996 7.59167 2.33329 5.83333 2.33329C3.53333 2.33329 1.66667 4.19996 1.66667 6.49996C1.66667 8.79996 3.53333 10.6666 5.83333 10.6666C7.59167 10.6666 9.175 9.54996 9.75833 7.89163L9.95 7.33329H15V10.6666ZM5.83333 8.99996C4.45833 8.99996 3.33333 7.87496 3.33333 6.49996C3.33333 5.12496 4.45833 3.99996 5.83333 3.99996C7.20833 3.99996 8.33333 5.12496 8.33333 6.49996C8.33333 7.87496 7.20833 8.99996 5.83333 8.99996ZM5.83333 5.66663C5.375 5.66663 5 6.04163 5 6.49996C5 6.95829 5.375 7.33329 5.83333 7.33329C6.29167 7.33329 6.66667 6.95829 6.66667 6.49996C6.66667 6.04163 6.29167 5.66663 5.83333 5.66663Z" fill="#AA832F"/>
</svg>
